PathFileType	4	(X/Y/Z)	3_coords_data.trc
DataRate	CameraRate	NumFrames	NumMarkers	Units	OrigDataRate	OrigDataStartFrame	OrigNumFrames
30.0	30.0	5	21	m	30.0	21	71
Frame#	Time	THUMB_TIP	THUMB_IP	THUMB_MCP	THUMB_CMC	INDEX_TIP	INDEX_DIP	INDEX_PIP	INDEX_MCP	MIDDLE_TIP	MIDDLE_DIP	MIDDLE_PIP	MIDDLE_MCP	RING_TIP	RING_DIP	RING_PIP	RING_MCP	PINKY_TIP	PINKY_DIP	PINKY_PIP	PINKY_MCP	WRIST
X1	Y1	Z1	X2	Y2	Z2	X3	Y3	Z3	X4	Y4	Z4	X5	Y5	Z5	X6	Y6	Z6	X7	Y7	Z7	X8	Y8	Z8	X9	Y9	Z9	X10	Y10	Z10	X11	Y11	Z11	X12	Y12	Z12	X13	Y13	Z13	X14	Y14	Z14	X15	Y15	Z15	X16	Y16	Z16	X17	Y17	Z17	X18	Y18	Z18	X19	Y19	Z19	X20	Y20	Z20	X21	Y21	Z21
19	0.6666666666666637	0.5401720306312686	-0.017170382372903692	-0.10012835380598664	0.5264474735192238	-0.010167400647808855	-0.11717519454074474	0.49544586841345994	-0.007922082292136645	-0.11553842138970771	0.4750704198041919	-0.016827629296711444	-0.07686773059525212	0.5574237088452835	0.030819955962848478	-0.169556488746207	0.5455807136005983	0.03095898170332889	-0.15585524298248732	0.5295079311336579	0.030879791369219145	-0.13652471723533285	0.5039659789824303	0.030620377097935525	-0.10244866290769311	0.5212239163095287	-0.008888522988993897	-0.10796546034289628	0.5362737298357335	-0.006463749939814356	-0.11774419177833484	0.544395020812422	0.021515083806346036	-0.11854359472846399	0.516280739035262	0.02866774910605363	-0.08456456501505388	0.5286074055498026	-0.01164227245774252	-0.09601599163010532	0.5448535731479865	-0.007251894365621014	-0.10248024863148891	0.5569318370213698	0.014228921606348588	-0.09889276121223606	0.5271855558076768	0.019407762099359793	-0.07200300109609059	0.6014799347380491	0.0008132733188493946	-0.0874625657252712	0.5858594993269495	0.001595788805711984	-0.08050629753891697	0.5659213565563211	0.0022873629585430377	-0.07396380512018391	0.5311717722209424	0.0005580799001726477	-0.06445804793716908	0.46228308100186083	-0.023011742144276925	-0.051989820119430985
20	0.6999999999999968	0.5402245743600435	-0.017179847073977683	-0.1001093297903437	0.5264573250364217	-0.010199035064161532	-0.11713081943563755	0.49545646973414825	-0.007916835122252053	-0.11553127764104484	0.47506932901054333	-0.016809861891450506	-0.0768638680045273	0.5574975062092431	0.030737765843094955	-0.16950746512293233	0.5456370065986513	0.03089389561640632	-0.1558215536632948	0.5295613629079048	0.03082581963503106	-0.13649336495899764	0.5039909954602854	0.030610657803621266	-0.10243831969430836	0.5212095967339925	-0.00881282037872333	-0.10787913541012978	0.53626867897161	-0.006449081922908939	-0.11765854145922974	0.5444439866905676	0.02151257844562926	-0.11850674139726311	0.5163015693761124	0.028655776241242603	-0.08454901776990845	0.528658356575783	-0.01171517169118308	-0.09603152373804974	0.5448885300739537	-0.007268652589269564	-0.10249758406065734	0.5569579560104674	0.014209852851105875	-0.09886677965794194	0.5271937942423234	0.019397291876050993	-0.07199847147521032	0.6014884892021977	0.0008127336525236561	-0.08742010725255187	0.5858667816878038	0.0016005836963534081	-0.08046729870900862	0.5659273463913876	0.0022774153247454576	-0.07392720406085271	0.531172999134041	0.0005663727472221547	-0.06443556926943364	0.4622830810018609	-0.023011742144276925	-0.051989820119430985
21	0.7333333333333302	0.5403214288632405	-0.017150288949796866	-0.10012660013691405	0.5265284559933918	-0.010218204873902348	-0.11714717914517175	0.4955224347123829	-0.008026295481136203	-0.1155217015121274	0.47503736208874864	-0.01684709309101362	-0.07688952154347936	0.557562518501717	0.030686718602799257	-0.1694613332925899	0.5456830622643452	0.03085368172252434	-0.15579200109159996	0.5295880612669304	0.030801243139088608	-0.13647987986973042	0.5039949366282983	0.030604295215325594	-0.10244182356877843	0.521183212553274	-0.00885476485486325	-0.1078459811348213	0.5362601642777193	-0.006432502658779926	-0.11758344346091903	0.5444831220230224	0.021514217871271613	-0.11846283389420492	0.5163016535098706	0.028662290446003658	-0.08453853858968022	0.5286935143457785	-0.011760109730470925	-0.09598537643018495	0.5449157041289423	-0.007290826046472909	-0.10245577533527331	0.5569859517944893	0.014186648015977465	-0.09882160305136495	0.5272000319125243	0.0193956992510399	-0.07198160312558885	0.6015026503731091	0.0008050450095471451	-0.08735978414130521	0.5858801863376544	0.001610266584974429	-0.08041066652283099	0.5659422565536321	0.0022880391851408666	-0.07386608103329409	0.5311809322293228	0.0005603306595779456	-0.06440305797135018	0.46228308100186094	-0.023011742144276925	-0.051989820119430985
22	0.7666666666666633	0.5403710885825286	-0.01714671872851692	-0.10007463917233916	0.5265602007073238	-0.010229328418471684	-0.11708666689971534	0.4955530839249364	-0.008021575393370561	-0.11550409449266824	0.4749893937372397	-0.016890956862493645	-0.07692484206056943	0.557631190998153	0.030635277449499898	-0.16942018282542812	0.5457319389320598	0.03081055152884493	-0.1557681837313507	0.529618134335011	0.03079350758253674	-0.13647168550208585	0.5039986016893678	0.03059041806527696	-0.1024535374680319	0.5211829956856692	-0.008816774753100831	-0.10777211378421506	0.5362595306540134	-0.006442229054511306	-0.11752196640226023	0.5445017480069582	0.021497846996424763	-0.11843166600912367	0.5162956146814988	0.028671866128265777	-0.0845333561202459	0.5287046285252093	-0.011755753404406932	-0.0959512743777986	0.5449366968492311	-0.007269600985579605	-0.10238512193577975	0.5570082387510958	0.014207595771428272	-0.0987536106013217	0.5272021429249495	0.01941415643490474	-0.07193553439030079	0.6015178574908802	0.0007942566707351828	-0.08731282670679663	0.5858949497668089	0.0015917926547075467	-0.0803638202598701	0.565956779252746	0.0022879594102720446	-0.07382189948684034	0.5311907186712296	0.0005442537661360936	-0.06437923178809438	0.46228308100186083	-0.023011742144276925	-0.051989820119430985
23	0.7999999999999965	0.5405279484655303	-0.01714245992786223	-0.09994755816499021	0.5267592095549047	-0.01020032792875214	-0.11698365607847835	0.49575139906457716	-0.008008028638151754	-0.1153932119844071	0.4749375617797057	-0.016911865323477993	-0.0769563043335576	0.5577256244569462	0.03065417396976533	-0.16932575334978534	0.5458142954492547	0.030836468628433478	-0.1556843820870438	0.5296772436069075	0.03084031698894163	-0.13640731342950357	0.504036641400015	0.030606243515697296	-0.10240524257967104	0.5211863395218761	-0.00880892112000542	-0.10771953467167916	0.536274056551779	-0.006404660484926938	-0.11744477634601255	0.5445391781899485	0.021528817454445237	-0.11834927870470177	0.5163039732531041	0.028700087422052767	-0.08447459774345742	0.5287373647776926	-0.011695775286399868	-0.09588491072006528	0.5449797537351064	-0.007216537963508518	-0.10229749475158503	0.5570364473309828	0.014264006835989496	-0.09863657770091117	0.5271939548131285	0.019463232010186737	-0.07185758347204188	0.6015216792909239	0.0008361314020032262	-0.0872549446543405	0.5859022123410896	0.0016436571165008296	-0.08029936024873816	0.565966802700202	0.0023217406123184903	-0.07374713435041128	0.5312006599817072	0.0005516479456413315	-0.06430968006291213	0.4622830810018609	-0.023011742144276925	-0.051989820119430985
